# xmcd CD database file
#
# Track frame offsets:
#	150
#	34865
#	70181
#	94226
#	124436
#	142296
#	162048
#	177713
#	199155
#
# Disc length: 2849 seconds
#
# Revision: 0
# Processed by: cddbd v1.4PL0 Copyright (c) Steve Scherf et al.
# Submitted via: CDex 1.51
#
DISCID=8c0b1f09
DTITLE=Gerry Mulligan - My Funny Valentine
DYEAR=1999
DGENRE=Jazz
TTITLE0=Rose Room
TTITLE1=Out of Nowhere
TTITLE2=Come Out Wherever You Are
TTITLE3=Yardbird Suite
TTITLE4=Lullaby Of The Leaves
TTITLE5=Baubles Bangles And Beads
TTITLE6=My Funny Valentine
TTITLE7=Birth of the Blues
TTITLE8=Fine And Mellow
EXTD=YEAR: 1999
EXTT0=
EXTT1=
EXTT2=
EXTT3=
EXTT4=
EXTT5=
EXTT6=
EXTT7=
EXTT8=
PLAYORDER=
